<svg width="33" height="32" viewBox="0 0 33 32" fill="none" xmlns="http://www.w3.org/2000/svg">
<path d="M25.4027 26.1428L17.7827 18.5214C14.3929 20.9314 9.72197 20.3419 7.03722 17.1653C4.35247 13.9888 4.5496 9.28489 7.49072 6.34411C10.4311 3.40204 15.1354 3.20405 18.3126 5.88866C21.4897 8.57327 22.0795 13.2447 19.6694 16.6348L27.2894 24.2561L25.4041 26.1414L25.4027 26.1428ZM13.1467 6.66676C10.6183 6.66619 8.43698 8.44101 7.92335 10.9167C7.40973 13.3924 8.705 15.8885 11.025 16.8938C13.3449 17.899 16.0519 17.1372 17.507 15.0695C18.9622 13.0018 18.7655 10.1965 17.0361 8.35211L17.8427 9.15211L16.9334 8.24544L16.9174 8.22944C15.9198 7.22568 14.5619 6.66294 13.1467 6.66676Z" fill="white"/>
</svg>
